<?xml version="1.0" standalone="no"?><!DOCTYPE svg PUBLIC "-//W3C//DTD SVG 1.1//EN"
        "http://www.w3.org/Graphics/SVG/1.1/DTD/svg11.dtd">
<svg t="1562390278162" class="icon" viewBox="0 0 1024 1024" version="1.1" xmlns="http://www.w3.org/2000/svg" p-id="2880"
     xmlns:xlink="http://www.w3.org/1999/xlink" width="200" height="200">
    <defs>
        <style type="text/css"></style>
    </defs>
    <path d="M563.3 509l352.3-352.3c13.9-13.9 13.9-36.4 0-50.3-13.9-13.9-36.4-13.9-50.3 0L513 458.7 160.7 106.4c-13.9-13.9-36.4-13.9-50.3 0-13.9 13.9-13.9 36.4 0 50.3L462.7 509 110.4 861.3c-13.9 13.9-13.9 36.4 0 50.3 6.9 6.9 16.1 10.4 25.2 10.4s18.2-3.5 25.2-10.4L513 559.3l352.3 352.3c6.9 6.9 16.1 10.4 25.2 10.4s18.2-3.5 25.2-10.4c13.9-13.9 13.9-36.4 0-50.3L563.3 509z"
          p-id="2881" fill="#FFFFFF"></path>
</svg>