<?xml version="1.0" standalone="no"?><!DOCTYPE svg PUBLIC "-//W3C//DTD SVG 1.1//EN" "http://www.w3.org/Graphics/SVG/1.1/DTD/svg11.dtd"><svg t="1562390941038" class="icon" viewBox="0 0 1024 1024" version="1.1" xmlns="http://www.w3.org/2000/svg" p-id="7596" xmlns:xlink="http://www.w3.org/1999/xlink" width="200" height="200"><defs><style type="text/css"></style></defs><path d="M833.618067 190.023783 184.24223 190.023783c-47.787349 0-86.67213 38.884781-86.67213 86.67213l0 445.12841c0 47.787349 38.884781 86.67213 86.67213 86.67213l649.375837 0c47.787349 0 87.695413-38.884781 87.695413-86.67213l0-445.12841C921.313481 228.908564 881.405416 190.023783 833.618067 190.023783zM835.255321 245.281103 550.066154 484.013191c-22.716898 19.033077-55.564305 18.930748-78.281203 0L187.312082 245.281103l646.408314 0C834.232038 245.281103 834.743679 245.281103 835.255321 245.281103zM833.618067 753.136804 185.265514 753.136804c-17.293495 0-31.41481-14.121315-31.41481-31.41481L153.850705 289.384631l282.426302 236.992505c21.591286 18.112122 48.196662 27.219346 74.69971 27.219346 26.503048 0 53.006096-9.004897 74.597382-27.117018l279.458779-234.024983L865.032877 721.721995C865.032877 739.117818 851.01389 753.136804 833.618067 753.136804z" p-id="7597" fill="#FFFFFF"></path></svg>