<?xml version="1.0" standalone="no"?><!DOCTYPE svg PUBLIC "-//W3C//DTD SVG 1.1//EN" "http://www.w3.org/Graphics/SVG/1.1/DTD/svg11.dtd"><svg t="1562414892927" class="icon" viewBox="0 0 1024 1024" version="1.1" xmlns="http://www.w3.org/2000/svg" p-id="5644" xmlns:xlink="http://www.w3.org/1999/xlink" width="200" height="200"><defs><style type="text/css"></style></defs><path d="M947.844186 289.041293A473.169157 473.169157 0 0 0 60.544647 614.778316a31.961441 31.961441 0 1 0 60.996413-19.116937 409.106443 409.106443 0 0 1-18.647503-122.492222c0-225.577857 183.528586-409.106443 409.106443-409.106444s409.106443 183.528586 409.106443 409.106444-183.528586 409.106443-409.106443 409.106443A409.346154 409.346154 0 0 1 204.371131 742.903742a31.961441 31.961441 0 1 0-48.012077 42.14915 473.139193 473.139193 0 0 0 791.485132-496.011599z" fill="#000000" p-id="5645"></path><path d="M102.893557 914.237041c0-198.170921 141.639123-363.871017 328.993094-401.225951a89.462071 89.462071 0 1 0-6.062686-63.992797A472.719699 472.719699 0 0 0 38.970675 914.237041a477.424023 477.424023 0 0 0 7.121408 82.230795 31.961441 31.961441 0 1 0 62.924087-11.036686 413.241455 413.241455 0 0 1-6.122613-71.194109z" fill="#000000" p-id="5646"></path></svg>