<?xml version="1.0" standalone="no"?><!DOCTYPE svg PUBLIC "-//W3C//DTD SVG 1.1//EN" "http://www.w3.org/Graphics/SVG/1.1/DTD/svg11.dtd"><svg t="1562390559035" class="icon" viewBox="0 0 1024 1024" version="1.1" xmlns="http://www.w3.org/2000/svg" p-id="5106" xmlns:xlink="http://www.w3.org/1999/xlink" width="200" height="200"><defs><style type="text/css"></style></defs><path d="M0.104819 25.704819A25.688693 25.688693 0 0 1 25.809638 0h970.921323a25.688693 25.688693 0 0 1 25.704819 25.704819v971.130961a25.688693 25.688693 0 0 1-25.704819 25.704818H528.609764a25.688693 25.688693 0 0 1-25.704819-25.704818 25.688693 25.688693 0 0 1 25.704819-25.704819h442.819527V51.2H51.52252v440.110362A25.688693 25.688693 0 0 1 25.801575 517.015181a25.688693 25.688693 0 0 1-25.704819-25.704819V25.704819z m0 970.921323v-355.900473a25.688693 25.688693 0 0 1 25.704819-25.696756H381.702047a25.688693 25.688693 0 0 1 25.704819 25.704819v355.89241a25.688693 25.688693 0 0 1-25.704819 25.704819H25.801575a25.688693 25.688693 0 0 1-25.696756-25.704819z m51.2-330.397229v304.902048h304.902047V666.228913H51.304819z m432.58759-382.226141a25.688693 25.688693 0 0 1 25.704819 25.704819V476.684094L799.445669 186.819528a25.479055 25.479055 0 0 1 36.154457 0 25.479055 25.479055 0 0 1 0 36.154456l-289.864567 289.856504h166.984567a25.688693 25.688693 0 0 1 25.704819 25.704819 25.688693 25.688693 0 0 1-25.704819 25.704819H483.892409a25.688693 25.688693 0 0 1-25.704818-25.704819V309.699528a25.688693 25.688693 0 0 1 25.704818-25.704819z" fill="#FFFFFF" p-id="5107"></path></svg>