<?xml version="1.0" standalone="no"?><!DOCTYPE svg PUBLIC "-//W3C//DTD SVG 1.1//EN" "http://www.w3.org/Graphics/SVG/1.1/DTD/svg11.dtd"><svg t="1562390846117" class="icon" viewBox="0 0 1024 1024" version="1.1" xmlns="http://www.w3.org/2000/svg" p-id="6112" xmlns:xlink="http://www.w3.org/1999/xlink" width="200" height="200"><defs><style type="text/css"></style></defs><path d="M891.591268 445.434355c-12.599603-48.953297-33.327982-94.632503-62.185138-134.553826l69.726836-116.196339-61.688379-61.68838-120.305888 72.165469a390.407056 390.407056 0 0 0-126.786329-50.172613L555.624432 16.257552h-87.248864l-34.682779 138.731114c-45.588886 9.257773-87.632723 27.16366-125.815391 50.782271L186.577993 132.99581 124.844454 194.68419l69.975215 116.670518c-28.541036 39.989063-50.466152 85.013451-62.659316 134.124807L8.128776 476.504344v87.248864l115.112503 28.789416a392.48441 392.48441 0 0 0 58.640088 157.969217l-57.036913 95.084102 61.710959 61.665799 90.793914-54.48538c48.366218 36.218214 104.612834 62.546417 166.549593 73.362205l24.454068 97.838853h87.248864l24.499228-97.906593a394.335965 394.335965 0 0 0 166.391533-73.384785l90.906814 54.5757 61.688379-61.665799-57.420772-95.78408c29.850673-46.875943 51.25645-99.667828 58.978787-157.269239l115.157663-28.789416v-87.248864l-124.212216-31.069989z m-379.568688 399.777729c-168.694686 0-305.416185-136.69892-305.416185-305.393605 0-168.672106 136.744079-305.393605 305.416185-305.393606s305.393605 136.721499 305.393605 305.393606c0 168.672106-136.721499 305.393605-305.393605 305.393605z m0-523.560926c-120.509107 0-218.167321 97.658214-218.167321 218.144741s97.658214 218.144741 218.167321 218.14474c120.486527 0 218.144741-97.635634 218.144741-218.14474s-97.658214-218.144741-218.144741-218.144741z m0 349.040617a130.895877 130.895877 0 1 1 0-261.791753 130.895877 130.895877 0 0 1 0 261.791753z" fill="#FFFFFF" p-id="6113"></path></svg>