<?xml version="1.0" standalone="no"?><!DOCTYPE svg PUBLIC "-//W3C//DTD SVG 1.1//EN" "http://www.w3.org/Graphics/SVG/1.1/DTD/svg11.dtd"><svg t="1562391033854" class="icon" viewBox="0 0 1024 1024" version="1.1" xmlns="http://www.w3.org/2000/svg" p-id="8307" xmlns:xlink="http://www.w3.org/1999/xlink" width="200" height="200"><defs><style type="text/css"></style></defs><path d="M982.016 271.36l-185.856-158.208a84.992 84.992 0 0 0-130.56 23.04 175.616 175.616 0 0 1-31.232 40.448 178.688 178.688 0 0 1-242.688 0A180.736 180.736 0 0 1 358.4 129.536a83.456 83.456 0 0 0-58.368-44.032 84.992 84.992 0 0 0-71.68 16.896L41.472 265.216a84.48 84.48 0 0 0-29.184 59.392 86.528 86.528 0 0 0 22.528 63.488A643.584 643.584 0 0 0 204.8 519.68a8.704 8.704 0 0 1 5.12 7.168v310.784a140.8 140.8 0 0 0 140.8 140.8H471.04a38.4 38.4 0 0 0 0-76.8H349.184a64 64 0 0 1-64-64V527.36a85.504 85.504 0 0 0-45.568-74.752 567.808 567.808 0 0 1-148.48-115.712 9.216 9.216 0 0 1 0-7.168 8.192 8.192 0 0 1 3.072-5.632l184.32-161.28a8.192 8.192 0 0 1 7.168 0 6.656 6.656 0 0 1 5.12 3.584 256 256 0 0 0 51.2 67.072 249.344 249.344 0 0 0 172.544 68.608 250.88 250.88 0 0 0 174.592-70.656 256 256 0 0 0 44.544-57.856 8.192 8.192 0 0 1 12.288 0l185.856 158.208a7.68 7.68 0 0 1 3.072 5.632 10.24 10.24 0 0 1-3.072 7.68 578.048 578.048 0 0 1-142.848 109.056 84.992 84.992 0 0 0-45.056 74.752v310.784a64 64 0 0 1-64 64 38.4 38.4 0 0 0 0 76.8A140.8 140.8 0 0 0 819.2 838.144v-311.296a8.704 8.704 0 0 1 5.12-7.168 653.824 653.824 0 0 0 161.792-123.904 87.552 87.552 0 0 0 24.064-64.512 83.968 83.968 0 0 0-28.16-59.904z" fill="#FFFFFF" p-id="8308"></path></svg>