<?xml version="1.0" standalone="no"?><!DOCTYPE svg PUBLIC "-//W3C//DTD SVG 1.1//EN" "http://www.w3.org/Graphics/SVG/1.1/DTD/svg11.dtd"><svg t="1563108390012" class="icon" viewBox="0 0 1024 1024" version="1.1" xmlns="http://www.w3.org/2000/svg" p-id="2948" xmlns:xlink="http://www.w3.org/1999/xlink" width="200" height="200"><defs><style type="text/css"></style></defs><path d="M284.16 724.48c-5.12 0-7.68 0-12.8-2.56l-30.72-17.92H135.68c-15.36 0-25.6-10.24-25.6-25.6v-253.44c0-15.36 10.24-25.6 25.6-25.6h104.96l30.72-17.92c12.8-7.68 28.16-2.56 35.84 10.24 7.68 12.8 2.56 28.16-10.24 35.84l-35.84 20.48c-5.12 2.56-7.68 2.56-12.8 2.56H161.28v202.24h84.48c5.12 0 7.68 0 12.8 2.56l35.84 20.48c12.8 7.68 15.36 23.04 10.24 35.84-5.12 7.68-12.8 12.8-20.48 12.8z" fill="#CFCECF" p-id="2949"></path><path d="M496.64 847.36c-5.12 0-7.68 0-12.8-2.56l-235.52-135.68 25.6-43.52 197.12 112.64V322.56l-194.56 115.2-25.6-43.52 235.52-135.68c7.68-5.12 17.92-5.12 25.6 0s12.8 12.8 12.8 23.04v542.72c0 10.24-5.12 17.92-12.8 23.04-7.68-2.56-12.8 0-15.36 0zM801.28 834.56l-35.84-35.84 17.92-17.92c128-128 128-335.36 0-463.36l-17.92-17.92 35.84-35.84 17.92 17.92c148.48 148.48 148.48 386.56 0 535.04l-17.92 17.92z" fill="#CFCECF" p-id="2950"></path><path d="M719.36 752.64L683.52 716.8l17.92-17.92c38.4-38.4 61.44-92.16 61.44-148.48 0-56.32-23.04-107.52-61.44-148.48l-17.92-17.92 35.84-35.84 17.92 17.92c48.64 48.64 76.8 115.2 76.8 184.32s-28.16 135.68-76.8 184.32l-17.92 17.92z" fill="#CFCECF" p-id="2951"></path><path d="M634.88 668.16l-35.84-35.84 17.92-17.92c17.92-17.92 28.16-40.96 28.16-64s-10.24-48.64-28.16-64l-17.92-17.92 35.84-35.84 17.92 17.92c28.16 28.16 40.96 64 40.96 102.4s-15.36 74.24-40.96 102.4l-17.92 12.8z" fill="#CFCECF" p-id="2952"></path></svg>