<?xml version="1.0" standalone="no"?><!DOCTYPE svg PUBLIC "-//W3C//DTD SVG 1.1//EN" "http://www.w3.org/Graphics/SVG/1.1/DTD/svg11.dtd"><svg t="1562402224130" class="icon" viewBox="0 0 1024 1024" version="1.1" xmlns="http://www.w3.org/2000/svg" p-id="13909" xmlns:xlink="http://www.w3.org/1999/xlink" width="200" height="200"><defs><style type="text/css"></style></defs><path d="M431.207929 106.919125c-14.536065-5.991458-30.570249-2.454912-41.684378 8.683776L198.703551 308.032562l-94.77862 0c-21.468964 0-38.633902 17.024745-38.633902 38.486546l0 331.002716c0 21.460778 17.164938 38.485523 38.633902 38.485523l94.77862 0 191.521988 192.429661c7.446599 7.467065 17.411555 11.530614 27.557636 11.530614 4.992711 0 8.626471-0.915859 13.424754-2.89391 14.545274-6.005784 22.63144-20.143783 22.63144-35.874045L453.839369 142.839219C453.838346 127.108956 445.753203 112.924909 431.207929 106.919125zM376.128473 787.108708 241.016239 649.917116c-7.299243-7.320733-15.827477-11.618619-26.163893-11.618619l-71.852468 0L142.999878 385.742435l71.852468 0c10.336416 0 18.86465-4.297886 26.163893-11.618619l135.112234-137.191592L376.128473 787.108708zM581.9 676.526147c-7.67889 8.590656-18.318204 12.96529-29.000498 12.96529-9.221012 0-18.47477-3.25923-25.891693-9.886161-16.011672-14.302751-17.388019-38.870286-3.080152-54.870702 97.04729-108.533902 10.117428-213.893508-0.113587-225.548966-14.113439-16.081257-12.632715-40.605813 3.388167-54.78986 16.020882-14.189164 40.431851-12.817933 54.697763 3.1262C632.777761 404.416749 698.252984 546.403554 581.9 676.526147zM699.338712 780.485871c-7.677866 8.591679-18.318204 12.96529-29.000498 12.96529-9.219989 0-18.478863-3.25923-25.891693-9.885138-16.010649-14.302751-17.388019-38.871309-3.079128-54.871725 191.540408-214.210733 7.91118-424.49811 0-433.345616-14.307867-16.000416-12.93152-40.568974 3.079128-54.871725 15.997346-14.302751 40.575114-12.927427 54.892191 3.079128C701.739389 246.240217 936.651606 515.090385 699.338712 780.485871zM821.955354 858.351286c-7.67889 8.590656-18.318204 12.96529-29.000498 12.96529-9.221012 0-18.47477-3.25923-25.891693-9.886161-16.011672-14.302751-17.388019-38.870286-3.080152-54.870702 109.224634-122.153084 142.595672-257.939677 99.177813-403.597081-32.952506-110.559025-98.518804-184.728258-99.177813-185.468109-14.307867-16.000416-12.93152-40.564881 3.080152-54.871725 15.992229-14.306844 40.568974-12.930497 54.892191 3.079128C825.049832 169.162748 1128.098893 515.981684 821.955354 858.351286z" p-id="13910" fill="#666666"></path></svg>